<?xml version="1.0" encoding="utf-8"?>
<!-- Generator: Adobe Illustrator 19.2.1, SVG Export Plug-In . SVG Version: 6.00 Build 0)  -->
<svg version="1.1" id="Layer_1" xmlns="http://www.w3.org/2000/svg" xmlns:xlink="http://www.w3.org/1999/xlink" x="0px" y="0px"
	 viewBox="0 0 165 20" style="enable-background:new 0 0 165 20;" xml:space="preserve">
<style type="text/css">
	.st0{enable-background:new    ;}
	.st1{fill:#57C5A0;}
</style>
<g class="st0">
	<path class="st1" d="M9.8,10.3H2.3v9.2H0.1v-19h9.7v2.2H2.3v5.5h7.5V10.3z"/>
	<path class="st1" d="M21.8-0.1c1.9,0,3.6,0.4,5.1,1.3c1.6,0.9,2.8,2.1,3.7,3.6c0.9,1.5,1.3,3.2,1.3,5s-0.4,3.5-1.3,5
		c-0.9,1.5-2.1,2.8-3.6,3.6c-1.5,0.9-3.2,1.3-5,1.3c-1.8,0-3.5-0.4-5.1-1.3c-1.6-0.9-2.8-2.1-3.7-3.6c-0.9-1.5-1.3-3.2-1.3-5
		c0-1.8,0.4-3.5,1.3-5c0.9-1.6,2.1-2.8,3.6-3.7C18.4,0.4,20-0.1,21.8-0.1z M21.9,17.7c2.2,0,4-0.7,5.5-2.2c1.5-1.5,2.2-3.3,2.2-5.5
		c0-2.2-0.8-4.1-2.3-5.6c-1.5-1.5-3.3-2.3-5.5-2.3c-2.2,0-4,0.8-5.5,2.3s-2.2,3.4-2.2,5.5c0,2.2,0.8,4,2.3,5.5
		C18,17,19.8,17.7,21.9,17.7z"/>
	<path class="st1" d="M44.4-0.1c1.9,0,3.6,0.4,5.1,1.3c1.6,0.9,2.8,2.1,3.7,3.6c0.9,1.5,1.3,3.2,1.3,5s-0.4,3.5-1.3,5
		c-0.9,1.5-2.1,2.8-3.6,3.6c-1.5,0.9-3.2,1.3-5,1.3c-1.8,0-3.5-0.4-5.1-1.3c-1.6-0.9-2.8-2.1-3.7-3.6c-0.9-1.5-1.3-3.2-1.3-5
		c0-1.8,0.4-3.5,1.3-5c0.9-1.6,2.1-2.8,3.6-3.7C41,0.4,42.6-0.1,44.4-0.1z M44.5,17.7c2.2,0,4-0.7,5.5-2.2c1.5-1.5,2.2-3.3,2.2-5.5
		c0-2.2-0.8-4.1-2.3-5.6c-1.5-1.5-3.3-2.3-5.5-2.3c-2.2,0-4,0.8-5.5,2.3s-2.2,3.4-2.2,5.5c0,2.2,0.8,4,2.3,5.5
		C40.6,17,42.4,17.7,44.5,17.7z"/>
	<path class="st1" d="M65.2,4.6c-0.7-0.9-1.3-1.6-1.8-1.9c-0.5-0.3-1.1-0.5-1.7-0.5c-0.7,0-1.2,0.2-1.6,0.6s-0.7,0.9-0.7,1.6
		c0,0.6,0.2,1.2,0.6,1.7s1.4,1.3,2.9,2.4c1.5,1.1,2.6,2.1,3.3,3.1c0.7,1,1,2,1,3.1c0,1.4-0.5,2.6-1.6,3.7c-1.1,1-2.3,1.5-3.8,1.5
		c-2.5,0-4.5-1.4-6-4.2l1.9-1.1c1.1,2.1,2.4,3.1,3.8,3.1c0.9,0,1.7-0.3,2.3-0.9c0.6-0.6,1-1.2,1-2s-0.3-1.5-0.8-2.2
		c-0.5-0.7-1.5-1.5-2.8-2.5c-1.3-1-2.2-1.8-2.7-2.3c-0.5-0.5-0.9-1.1-1.1-1.7c-0.2-0.6-0.3-1.2-0.3-1.8c0-1.3,0.4-2.3,1.3-3.2
		c0.9-0.9,2-1.3,3.4-1.3c1.1,0,2,0.3,2.8,0.8c0.8,0.5,1.6,1.4,2.3,2.4L65.2,4.6z"/>
	<path class="st1" d="M81.9,2.6h-8.8v5.5h8.8v2.2h-8.8v7h8.8v2.2h-11v-19h11.1V2.6z"/>
	<path class="st1" d="M92.1,4.6c-0.7-0.9-1.3-1.6-1.8-1.9c-0.5-0.3-1.1-0.5-1.7-0.5c-0.6,0-1.2,0.2-1.6,0.6s-0.7,0.9-0.7,1.6
		c0,0.6,0.2,1.2,0.6,1.7s1.4,1.3,2.9,2.4s2.6,2.1,3.3,3.1c0.7,1,1,2,1,3.1c0,1.4-0.5,2.6-1.6,3.7s-2.3,1.5-3.8,1.5
		c-2.5,0-4.5-1.4-6-4.2l1.9-1.1c1.1,2.1,2.4,3.1,3.8,3.1c0.9,0,1.7-0.3,2.3-0.9c0.6-0.6,1-1.2,1-2s-0.3-1.5-0.8-2.2
		s-1.5-1.5-2.8-2.5c-1.3-1-2.2-1.8-2.7-2.3c-0.5-0.5-0.9-1.1-1.1-1.7C84.1,5.6,84,5.1,84,4.5c0-1.3,0.4-2.3,1.3-3.2
		c0.9-0.9,2-1.3,3.4-1.3c1.1,0,2,0.3,2.8,0.8c0.8,0.5,1.6,1.4,2.3,2.4L92.1,4.6z"/>
	<path class="st1" d="M111.3,19.4h-2.2v-9h-9.1v9h-2.3v-19h2.3v7.8h9.1V0.4h2.2V19.4z"/>
	<path class="st1" d="M124.6-0.1c1.9,0,3.6,0.4,5.1,1.3c1.6,0.9,2.8,2.1,3.7,3.6c0.9,1.5,1.3,3.2,1.3,5s-0.4,3.5-1.3,5
		s-2.1,2.8-3.6,3.6c-1.5,0.9-3.2,1.3-5,1.3s-3.5-0.4-5.1-1.3c-1.6-0.9-2.8-2.1-3.7-3.6c-0.9-1.5-1.3-3.2-1.3-5c0-1.8,0.4-3.5,1.3-5
		c0.9-1.6,2.1-2.8,3.6-3.7C121.1,0.4,122.8-0.1,124.6-0.1z M124.6,17.7c2.2,0,4-0.7,5.5-2.2c1.5-1.5,2.2-3.3,2.2-5.5
		c0-2.2-0.8-4.1-2.3-5.6s-3.3-2.3-5.5-2.3c-2.2,0-4,0.8-5.5,2.3S117,7.8,117,9.9c0,2.2,0.8,4,2.3,5.5S122.5,17.7,124.6,17.7z"/>
	<path class="st1" d="M149.2,2.6h-8.8v5.5h8.8v2.2h-8.8v7h8.8v2.2h-11v-19h11.1V2.6z"/>
	<path class="st1" d="M159.3,4.6c-0.7-0.9-1.3-1.6-1.8-1.9c-0.5-0.3-1.1-0.5-1.7-0.5c-0.6,0-1.2,0.2-1.6,0.6
		c-0.4,0.4-0.7,0.9-0.7,1.6c0,0.6,0.2,1.2,0.6,1.7s1.4,1.3,2.9,2.4c1.5,1.1,2.6,2.1,3.3,3.1c0.7,1,1,2,1,3.1c0,1.4-0.5,2.6-1.6,3.7
		c-1.1,1-2.3,1.5-3.8,1.5c-2.5,0-4.5-1.4-6-4.2l1.9-1.1c1.1,2.1,2.4,3.1,3.8,3.1c0.9,0,1.7-0.3,2.3-0.9c0.6-0.6,1-1.2,1-2
		s-0.3-1.5-0.8-2.2s-1.5-1.5-2.8-2.5c-1.3-1-2.2-1.8-2.7-2.3c-0.5-0.5-0.9-1.1-1.1-1.7c-0.2-0.6-0.3-1.2-0.3-1.8
		c0-1.3,0.4-2.3,1.3-3.2c0.9-0.9,2-1.3,3.4-1.3c1.1,0,2,0.3,2.8,0.8c0.8,0.5,1.6,1.4,2.3,2.4L159.3,4.6z"/>
</g>
</svg>
